<svg id="logo" width="48" height="46" viewBox="0 0 48 46" fill="none" xmlns="http://www.w3.org/2000/svg">
  <path fill-rule="evenodd" clip-rule="evenodd"
    d="M 26.6 3.7 C 25.1 2.2 22.7 2.2 21.2 3.7 L 8.7 16.2 L 8.7 16.2 L 8.7 16.2 C 8.7 16.2 8.7 16.2 8.7 16.2 C 6.5 16.4 5.6 17.1 5.6 17.9 C 5.6 18.3 5.7 18.6 6 19 L 6 19 C 8 22 17.8 25.9 24.8 23.2 C 19.5 25.8 7.3 26.4 3.6 21.3 C 2.9 22.1 2.5 23.3 2.7 24.3 C 3.6 29.6 14.3 31 24.9 23.4 L 27.2 25.7 C 24.4 28.7 20.1 45.8 26.4 43.2 C 26.6 43.1 26.7 43 26.9 42.9 L 27.2 42.6 C 27.1 42.6 27.1 42.6 27.1 42.6 L 44 26.7 C 45.6 25.2 45.6 22.7 44.1 21.2 L 26.6 3.7 Z M 24.8 8.9 L 25.3 6.6 L 25.9 8.9 L 27.7 9.5 L 25.9 10.1 L 25.3 12.4 L 24.8 10.1 L 23 9.5 L 24.8 8.9 Z M 17.6 16.5 L 18 14.9 L 18.4 16.5 L 19.5 16.8 L 18.4 17.2 L 18 18.8 L 17.6 17.2 L 16.5 16.8 L 17.6 16.5 Z M 31 29.4 L 30.6 31 L 29.5 31.4 L 30.6 31.7 L 31 33.3 L 31.4 31.7 L 32.6 31.4 L 31.4 31 L 31 29.4 Z"
    class="ccustom" fill="#7c3aed"></path>
  <path clip-rule="evenodd" fill-rule="evenodd"
    d="M 45.3 5.3 C 41.7 5.3 38.3 6.9 36 9.6 L 27.7 19.5 L 32.5 12.4 L 24.6 15.7 C 23.6 16.2 23.3 17.5 24.1 18.2 L 26.7 20.8 L 25.4 22.3 L 28.2 25.2 L 29.8 23.9 L 32.3 26.4 C 33.1 27.2 34.4 26.9 34.8 25.9 L 38.2 18.1 L 31.1 22.8 L 40.9 14.6 C 43.7 12.3 45.3 8.9 45.3 5.3 Z M 37.5 13.1 C 38.2 13.9 39.5 13.9 40.3 13.1 C 41.1 12.3 41.1 11 40.3 10.2 C 39.5 9.4 38.2 9.4 37.5 10.2 C 36.7 11 36.7 12.3 37.5 13.1 Z"
    class="ccompli2" fill="#a3a2ff"></path>
  <path opacity="0.6" d="M 3.5 21.2 C 5.4 27.6 16.9 27.3 24.8 23.2 C 19.5 25.9 7 26.4 3.5 21.2 Z" fill="#424242"></path>
  <path opacity="0.6"
    d="M 26.4 43.2 C 21.1 45.4 23.3 33.6 25.8 28 C 24 32.9 22.4 43.8 27.2 42.6 L 26.9 42.9 C 26.7 43 26.6 43.1 26.4 43.2 Z"
    fill="#424242"></path>
</svg>